Coordinates
version=1
nRows=19
nColumns=24
inDegrees=yes

Units are S.I. units (second, meters, Newtons, ...)
Angles are in degrees.

endheader
time	pelvis_tilt	pelvis_list	pelvis_rotation	pelvis_tx	pelvis_ty	pelvis_tz	hip_flexion_r	hip_adduction_r	hip_rotation_r	knee_angle_r	ankle_angle_r	subtalar_angle_r	mtp_angle_r	hip_flexion_l	hip_adduction_l	hip_rotation_l	knee_angle_l	ankle_angle_l	subtalar_angle_l	mtp_angle_l	lumbar_extension	lumbar_bending	lumbar_rotation
      5.87000000	     37.31037436	      2.13582506	      3.97225246	      0.60856689	      0.67892340	     -0.26900636	    -16.43563875	     -4.54343226	    -17.18467312	    -55.40709135	     15.22584907	      2.78299885	      0.00000000	    -31.99637415	      2.40013128	      2.33647772	    -15.58404718	     17.05068738	     13.14531942	      0.00000000	    -61.98831159	      1.31901206	     -3.55347735
      5.87500000	     37.20075343	      2.17104992	      4.18492940	      0.61319338	      0.67907632	     -0.26882484	    -15.89544326	     -4.41150104	    -17.23756721	    -54.03795122	     15.45697996	      2.60559399	      0.00000000	    -32.46922157	      2.24260270	      2.35101937	    -15.28232721	     17.28322140	     13.31219833	      0.00000000	    -61.95335310	      1.43314020	     -3.73742436
      5.88000000	     37.15886479	      2.21952387	      4.47205582	      0.61783329	      0.67921041	     -0.26866696	    -15.50050568	     -4.27346937	    -17.39589679	    -52.55669652	     15.56848256	      2.35940640	      0.00000000	    -33.02127969	      2.04021178	      2.45387242	    -14.96764489	     17.59440362	     13.57588632	      0.00000000	    -61.99321974	      1.58986125	     -3.95552696
      5.88500000	     37.01048479	      2.32161375	      4.52051390	      0.62244155	      0.67913158	     -0.26844687	    -14.92468403	     -4.31453548	    -17.33038700	    -51.14595295	     15.79614409	      2.22238589	      0.00000000	    -33.45131858	      2.06596917	      2.50130889	    -14.68384466	     17.80735263	     13.54528748	      0.00000000	    -61.93370355	      1.53164219	     -4.10067384
      5.89000000	     37.11251869	      2.41205084	      4.93729965	      0.62709107	      0.67926265	     -0.26829808	    -14.85349801	     -4.15209019	    -17.63510820	    -49.38743697	     15.84767399	      1.91680699	      0.00000000	    -34.12477564	      1.79605569	      2.68535443	    -14.44603932	     18.10356489	     13.84299800	      0.00000000	    -62.11125241	      1.76464682	     -4.44940137
      5.89500000	     36.98302768	      2.48487618	      5.07781968	      0.63174300	      0.67910925	     -0.26809622	    -14.41532896	     -4.12414739	    -17.65308480	    -47.75374390	     15.84852066	      1.67272988	      0.00000000	    -34.55014970	      1.72739879	      2.73023423	    -14.21524928	     18.39352499	     13.87464002	      0.00000000	    -62.06474688	      1.80460347	     -4.62835578
      5.90000000	     36.96523964	      2.65015268	      5.31518492	      0.63637062	      0.67895034	     -0.26787598	    -14.19837358	     -4.14475091	    -17.80583681	    -45.99804565	     15.91330537	      1.44901906	      0.00000000	    -35.08442048	      1.65629417	      2.87449109	    -14.01133565	     18.69770201	     14.00532674	      0.00000000	    -62.14091501	      1.84236691	     -4.89514204
      5.90500000	     36.84709955	      2.77504876	      5.43578224	      0.64103839	      0.67866157	     -0.26763321	    -13.85139086	     -4.18450953	    -17.82886674	    -44.23192806	     15.85754418	      1.26389461	      0.00000000	    -35.51171249	      1.64053732	      2.95135339	    -13.81605505	     18.98922787	     14.03729960	      0.00000000	    -62.11075236	      1.83129453	     -5.13954020
      5.91000000	     36.81477690	      2.98269607	      5.64519844	      0.64568778	      0.67835095	     -0.26740418	    -13.69158856	     -4.27805484	    -17.99972797	    -42.35703025	     15.86184335	      1.12715408	      0.00000000	    -36.02083614	      1.62441841	      3.11897302	    -13.64760026	     19.31658147	     14.12804313	      0.00000000	    -62.17496770	      1.82349534	     -5.42791403
      5.91500000	     36.64664217	      3.16062235	      5.65939892	      0.65035437	      0.67786323	     -0.26706724	    -13.32568688	     -4.41912648	    -17.93233140	    -40.51967238	     15.85034978	      1.09109056	      0.00000000	    -36.38475117	      1.72612422	      3.14353034	    -13.48860352	     19.57761737	     14.08603901	      0.00000000	    -62.11145404	      1.68324535	     -5.64749609
      5.92000000	     36.60986536	      3.38977674	      5.90409780	      0.65505724	      0.67744954	     -0.26686429	    -13.25959987	     -4.53418131	    -18.17830936	    -38.49657891	     15.67685784	      1.05121533	      0.00000000	    -36.88270739	      1.69807598	      3.37142583	    -13.34890257	     19.96289695	     14.24329049	      0.00000000	    -62.15912843	      1.70338795	     -6.01594254
      5.92500000	     36.58050270	      3.65756986	      6.05203782	      0.65976282	      0.67694628	     -0.26663497	    -13.21830591	     -4.73619871	    -18.38360923	    -36.45149762	     15.63175113	      1.23665332	      0.00000000	    -37.40022263	      1.77199388	      3.58145063	    -13.20433951	     20.26824663	     14.23180748	      0.00000000	    -62.22399012	      1.62702623	     -6.36445542
      5.93000000	     36.40074629	      3.89623894	      6.03292547	      0.66446743	      0.67626054	     -0.26621877	    -12.95383455	     -4.95212377	    -18.35928583	    -34.43783056	     15.57152072	      1.33110528	      0.00000000	    -37.74298415	      1.93521214	      3.62039630	    -13.08795219	     20.55949304	     14.21570320	      0.00000000	    -62.15443234	      1.40796984	     -6.57306627
      5.93500000	     36.37744088	      4.20726044	      6.25982955	      0.66919863	      0.67567028	     -0.26602149	    -13.03515334	     -5.18170581	    -18.74039340	    -32.24738797	     15.41398332	      1.69969308	      0.00000000	    -38.25285652	      1.97582284	      3.90101442	    -12.98369591	     20.96930177	     14.37171115	      0.00000000	    -62.22184760	      1.37320920	     -6.98918403
      5.94000000	     36.32045252	      4.51129960	      6.35471549	      0.67394585	      0.67498687	     -0.26571966	    -13.06458591	     -5.43214715	    -18.97911558	    -30.04658102	     15.28788758	      2.08707640	      0.00000000	    -38.73759454	      2.10218200	      4.11196231	    -12.87047115	     21.28326829	     14.34213190	      0.00000000	    -62.26085198	      1.22848277	     -7.33473636
      5.94500000	     36.20286151	      4.80971258	      6.40461578	      0.67871778	      0.67421135	     -0.26534552	    -13.03876335	     -5.68992765	    -19.19864980	    -27.82161120	     15.14075462	      2.52983314	      0.00000000	    -39.15120813	      2.24666880	      4.25143049	    -12.77363805	     21.62887057	     14.42692051	      0.00000000	    -62.23833357	      1.04305479	     -7.64286254
      5.95000000	     36.10006981	      5.12198956	      6.45857103	      0.68351035	      0.67340597	     -0.26497058	    -13.07405706	     -5.95621768	    -19.47244416	    -25.54304675	     14.97848761	      3.10472168	      0.00000000	    -39.58411450	      2.39435475	      4.41788873	    -12.67914377	     21.96600274	     14.47865397	      0.00000000	    -62.23230951	      0.85696902	     -7.96986477
      5.95500000	     36.06226261	      5.47706911	      6.58247184	      0.68831870	      0.67263459	     -0.26457996	    -13.26237901	     -6.21235174	    -19.85792679	    -23.17085453	     14.74774690	      3.65797447	      0.00000000	    -40.08852604	      2.51022028	      4.68069279	    -12.59003710	     22.25265996	     14.51745671	      0.00000000	    -62.28863552	      0.68814584	     -8.36353453
      5.96000000	     35.87735372	      5.75066735	      6.51398042	      0.69318774	      0.67167031	     -0.26408693	    -13.20932015	     -6.46934805	    -20.06194792	    -20.88052742	     14.54458292	      4.39767842	      0.00000000	    -40.43865130	      2.70395285	      4.70007919	    -12.50031539	     22.62275725	     14.63023873	      0.00000000	    -62.18704359	      0.42070253	     -8.59049728
